<mxfile host="65bd71144e">
    <diagram id="Fo4rl5hgtW8sDvK_fd4T" name="Page-1">
        <mxGraphModel dx="1536" dy="787" grid="1" gridSize="10" guides="1" tooltips="1" connect="1" arrows="1" fold="1" page="0" pageScale="1" pageWidth="827" pageHeight="1169" math="0" shadow="0">
            <root>
                <mxCell id="0"/>
                <mxCell id="1" parent="0"/>
                <mxCell id="2" value="Process B: &lt;br&gt;Packaging" style="swimlane;html=1;startSize=40;horizontal=0;childLayout=flowLayout;flowOrientation=west;resizable=0;interRankCellSpacing=50;containerType=tree;fontSize=12;" parent="1" vertex="1">
                    <mxGeometry x="80" y="450" width="330" height="80" as="geometry"/>
                </mxCell>
                <mxCell id="3" value="Prepare Packaging Materials" style="whiteSpace=wrap;html=1;" parent="2" vertex="1">
                    <mxGeometry x="60" y="20" width="100" height="40" as="geometry"/>
                </mxCell>
                <mxCell id="4" value="Package Painted Components" style="whiteSpace=wrap;html=1;" parent="2" vertex="1">
                    <mxGeometry x="210" y="20" width="100" height="40" as="geometry"/>
                </mxCell>
                <mxCell id="5" value="" style="html=1;rounded=1;curved=0;sourcePerimeterSpacing=0;targetPerimeterSpacing=0;startSize=6;endSize=6;noEdgeStyle=1;orthogonal=1;" parent="2" source="3" target="4" edge="1">
                    <mxGeometry relative="1" as="geometry">
                        <Array as="points">
                            <mxPoint x="172" y="40"/>
                            <mxPoint x="198" y="40"/>
                        </Array>
                    </mxGeometry>
                </mxCell>
                <mxCell id="15" value="Process A: &lt;br&gt;Painting" style="swimlane;html=1;startSize=40;horizontal=0;childLayout=flowLayout;flowOrientation=west;resizable=0;interRankCellSpacing=50;containerType=tree;fontSize=12;" parent="1" vertex="1">
                    <mxGeometry x="80" y="280" width="480" height="80" as="geometry"/>
                </mxCell>
                <mxCell id="16" value="Monitor Humidity Sensor" style="whiteSpace=wrap;html=1;" parent="15" vertex="1">
                    <mxGeometry x="60" y="20" width="100" height="40" as="geometry"/>
                </mxCell>
                <mxCell id="17" value="Adjust Paint Settings" style="whiteSpace=wrap;html=1;" parent="15" vertex="1">
                    <mxGeometry x="210" y="20" width="100" height="40" as="geometry"/>
                </mxCell>
                <mxCell id="18" value="" style="html=1;rounded=1;curved=0;sourcePerimeterSpacing=0;targetPerimeterSpacing=0;startSize=6;endSize=6;noEdgeStyle=1;orthogonal=1;" parent="15" source="16" target="17" edge="1">
                    <mxGeometry relative="1" as="geometry">
                        <Array as="points">
                            <mxPoint x="172" y="40"/>
                            <mxPoint x="198" y="40"/>
                        </Array>
                    </mxGeometry>
                </mxCell>
                <mxCell id="19" value="" style="html=1;rounded=1;curved=0;sourcePerimeterSpacing=0;targetPerimeterSpacing=0;startSize=6;endSize=6;noEdgeStyle=1;orthogonal=1;" parent="15" source="17" target="20" edge="1">
                    <mxGeometry relative="1" as="geometry">
                        <mxPoint x="2520" y="1226.5" as="sourcePoint"/>
                        <Array as="points">
                            <mxPoint x="322" y="40"/>
                            <mxPoint x="348" y="40"/>
                        </Array>
                    </mxGeometry>
                </mxCell>
                <mxCell id="20" value="Paint Components" style="whiteSpace=wrap;html=1;" parent="15" vertex="1">
                    <mxGeometry x="360" y="20" width="100" height="40" as="geometry"/>
                </mxCell>
                <mxCell id="52" value="" style="endArrow=blockThin;html=1;labelPosition=left;verticalLabelPosition=middle;align=right;verticalAlign=middle;dashed=1;dashPattern=8 4;endFill=0;startArrow=oval;startFill=0;endSize=6;startSize=4;exitX=0.5;exitY=1;exitDx=0;exitDy=0;entryX=0.5;entryY=0;entryDx=0;entryDy=0;" edge="1" parent="1" source="16" target="4">
                    <mxGeometry relative="1" as="geometry">
                        <mxPoint x="140" y="410" as="sourcePoint"/>
                        <mxPoint x="300" y="410" as="targetPoint"/>
                    </mxGeometry>
                </mxCell>
                <mxCell id="53" value="Sensor &lt;br&gt;readings" style="shape=message;html=1;outlineConnect=0;labelPosition=left;verticalLabelPosition=middle;align=right;verticalAlign=middle;spacingRight=5;labelBackgroundColor=#ffffff;" vertex="1" parent="52">
                    <mxGeometry width="24" height="16" relative="1" as="geometry">
                        <mxPoint x="-45" y="-5" as="offset"/>
                    </mxGeometry>
                </mxCell>
            </root>
        </mxGraphModel>
    </diagram>
</mxfile>